<mxfile host="app.diagrams.net" modified="2023-04-05T15:17:24.533Z" agent="Mozilla/5.0 (Windows NT 10.0; Win64; x64) AppleWebKit/537.36 (KHTML, like Gecko) Chrome/111.0.0.0 Safari/537.36" etag="TK4X92D0iQwstm__c37-" version="21.1.4" type="device">
  <diagram name="Page-1" id="wu76bqfl-tF54zrKLqpx">
    <mxGraphModel dx="1434" dy="788" grid="1" gridSize="10" guides="1" tooltips="1" connect="1" arrows="1" fold="1" page="1" pageScale="1" pageWidth="850" pageHeight="1100" math="0" shadow="0">
      <root>
        <mxCell id="0" />
        <mxCell id="1" parent="0" />
        <mxCell id="fC03vkBdiAybOkjMKHiT-3" value="" style="whiteSpace=wrap;html=1;" vertex="1" parent="1">
          <mxGeometry x="150" y="110" width="790" height="690" as="geometry" />
        </mxCell>
        <mxCell id="fC03vkBdiAybOkjMKHiT-41" style="rounded=0;orthogonalLoop=1;jettySize=auto;html=1;entryX=0;entryY=0.5;entryDx=0;entryDy=0;endArrow=none;endFill=0;" edge="1" parent="1" source="fC03vkBdiAybOkjMKHiT-1" target="fC03vkBdiAybOkjMKHiT-19">
          <mxGeometry relative="1" as="geometry" />
        </mxCell>
        <mxCell id="fC03vkBdiAybOkjMKHiT-42" style="rounded=0;orthogonalLoop=1;jettySize=auto;html=1;entryX=0;entryY=0.5;entryDx=0;entryDy=0;endArrow=none;endFill=0;exitX=1;exitY=0.3333333333333333;exitDx=0;exitDy=0;exitPerimeter=0;" edge="1" parent="1" source="fC03vkBdiAybOkjMKHiT-1" target="fC03vkBdiAybOkjMKHiT-21">
          <mxGeometry relative="1" as="geometry" />
        </mxCell>
        <mxCell id="fC03vkBdiAybOkjMKHiT-43" style="rounded=0;orthogonalLoop=1;jettySize=auto;html=1;endArrow=none;endFill=0;" edge="1" parent="1" source="fC03vkBdiAybOkjMKHiT-1" target="fC03vkBdiAybOkjMKHiT-26">
          <mxGeometry relative="1" as="geometry" />
        </mxCell>
        <mxCell id="fC03vkBdiAybOkjMKHiT-44" style="rounded=0;orthogonalLoop=1;jettySize=auto;html=1;endArrow=none;endFill=0;" edge="1" parent="1" source="fC03vkBdiAybOkjMKHiT-1" target="fC03vkBdiAybOkjMKHiT-25">
          <mxGeometry relative="1" as="geometry" />
        </mxCell>
        <mxCell id="fC03vkBdiAybOkjMKHiT-47" style="rounded=0;orthogonalLoop=1;jettySize=auto;html=1;entryX=0;entryY=0.5;entryDx=0;entryDy=0;endArrow=none;endFill=0;" edge="1" parent="1" source="fC03vkBdiAybOkjMKHiT-1" target="fC03vkBdiAybOkjMKHiT-27">
          <mxGeometry relative="1" as="geometry" />
        </mxCell>
        <mxCell id="fC03vkBdiAybOkjMKHiT-48" style="rounded=0;orthogonalLoop=1;jettySize=auto;html=1;entryX=0;entryY=0.5;entryDx=0;entryDy=0;endArrow=none;endFill=0;" edge="1" parent="1" source="fC03vkBdiAybOkjMKHiT-1" target="fC03vkBdiAybOkjMKHiT-18">
          <mxGeometry relative="1" as="geometry" />
        </mxCell>
        <mxCell id="fC03vkBdiAybOkjMKHiT-49" style="rounded=0;orthogonalLoop=1;jettySize=auto;html=1;entryX=0;entryY=0.5;entryDx=0;entryDy=0;endArrow=none;endFill=0;" edge="1" parent="1" source="fC03vkBdiAybOkjMKHiT-1" target="fC03vkBdiAybOkjMKHiT-24">
          <mxGeometry relative="1" as="geometry" />
        </mxCell>
        <mxCell id="fC03vkBdiAybOkjMKHiT-50" style="rounded=0;orthogonalLoop=1;jettySize=auto;html=1;endArrow=none;endFill=0;entryX=0;entryY=0.5;entryDx=0;entryDy=0;" edge="1" parent="1" source="fC03vkBdiAybOkjMKHiT-1" target="fC03vkBdiAybOkjMKHiT-23">
          <mxGeometry relative="1" as="geometry" />
        </mxCell>
        <mxCell id="fC03vkBdiAybOkjMKHiT-51" style="rounded=0;orthogonalLoop=1;jettySize=auto;html=1;entryX=0;entryY=0.5;entryDx=0;entryDy=0;endArrow=none;endFill=0;" edge="1" parent="1" source="fC03vkBdiAybOkjMKHiT-1" target="fC03vkBdiAybOkjMKHiT-20">
          <mxGeometry relative="1" as="geometry" />
        </mxCell>
        <mxCell id="fC03vkBdiAybOkjMKHiT-52" style="rounded=0;orthogonalLoop=1;jettySize=auto;html=1;entryX=0;entryY=0.5;entryDx=0;entryDy=0;endArrow=none;endFill=0;" edge="1" parent="1" source="fC03vkBdiAybOkjMKHiT-1" target="fC03vkBdiAybOkjMKHiT-22">
          <mxGeometry relative="1" as="geometry" />
        </mxCell>
        <mxCell id="fC03vkBdiAybOkjMKHiT-1" value="Employé" style="shape=umlActor;verticalLabelPosition=bottom;verticalAlign=top;html=1;outlineConnect=0;" vertex="1" parent="1">
          <mxGeometry x="50" y="450" width="30" height="60" as="geometry" />
        </mxCell>
        <mxCell id="fC03vkBdiAybOkjMKHiT-71" style="rounded=0;orthogonalLoop=1;jettySize=auto;html=1;entryX=1;entryY=0.5;entryDx=0;entryDy=0;endArrow=none;endFill=0;" edge="1" parent="1" source="fC03vkBdiAybOkjMKHiT-2" target="fC03vkBdiAybOkjMKHiT-13">
          <mxGeometry relative="1" as="geometry" />
        </mxCell>
        <mxCell id="fC03vkBdiAybOkjMKHiT-72" style="rounded=0;orthogonalLoop=1;jettySize=auto;html=1;entryX=0.98;entryY=0.675;entryDx=0;entryDy=0;entryPerimeter=0;endArrow=none;endFill=0;" edge="1" parent="1" source="fC03vkBdiAybOkjMKHiT-2" target="fC03vkBdiAybOkjMKHiT-14">
          <mxGeometry relative="1" as="geometry" />
        </mxCell>
        <mxCell id="fC03vkBdiAybOkjMKHiT-73" style="rounded=0;orthogonalLoop=1;jettySize=auto;html=1;endArrow=none;endFill=0;" edge="1" parent="1" source="fC03vkBdiAybOkjMKHiT-2" target="fC03vkBdiAybOkjMKHiT-17">
          <mxGeometry relative="1" as="geometry" />
        </mxCell>
        <mxCell id="fC03vkBdiAybOkjMKHiT-74" style="rounded=0;orthogonalLoop=1;jettySize=auto;html=1;entryX=1;entryY=0.5;entryDx=0;entryDy=0;endArrow=none;endFill=0;" edge="1" parent="1" source="fC03vkBdiAybOkjMKHiT-2" target="fC03vkBdiAybOkjMKHiT-12">
          <mxGeometry relative="1" as="geometry" />
        </mxCell>
        <mxCell id="fC03vkBdiAybOkjMKHiT-75" style="rounded=0;orthogonalLoop=1;jettySize=auto;html=1;entryX=1;entryY=0.5;entryDx=0;entryDy=0;endArrow=none;endFill=0;" edge="1" parent="1" source="fC03vkBdiAybOkjMKHiT-2" target="fC03vkBdiAybOkjMKHiT-15">
          <mxGeometry relative="1" as="geometry" />
        </mxCell>
        <mxCell id="fC03vkBdiAybOkjMKHiT-76" style="rounded=0;orthogonalLoop=1;jettySize=auto;html=1;entryX=1;entryY=0.5;entryDx=0;entryDy=0;endArrow=none;endFill=0;" edge="1" parent="1" source="fC03vkBdiAybOkjMKHiT-2" target="fC03vkBdiAybOkjMKHiT-16">
          <mxGeometry relative="1" as="geometry" />
        </mxCell>
        <mxCell id="fC03vkBdiAybOkjMKHiT-2" value="Administrateur" style="shape=umlActor;verticalLabelPosition=bottom;verticalAlign=top;html=1;outlineConnect=0;" vertex="1" parent="1">
          <mxGeometry x="970" y="440" width="30" height="60" as="geometry" />
        </mxCell>
        <mxCell id="fC03vkBdiAybOkjMKHiT-80" style="rounded=0;orthogonalLoop=1;jettySize=auto;html=1;dashed=1;exitX=1;exitY=0.5;exitDx=0;exitDy=0;" edge="1" parent="1" source="fC03vkBdiAybOkjMKHiT-12" target="fC03vkBdiAybOkjMKHiT-28">
          <mxGeometry relative="1" as="geometry" />
        </mxCell>
        <mxCell id="fC03vkBdiAybOkjMKHiT-12" value="Gérer les employés" style="ellipse;whiteSpace=wrap;html=1;" vertex="1" parent="1">
          <mxGeometry x="500" y="540" width="200" height="40" as="geometry" />
        </mxCell>
        <mxCell id="fC03vkBdiAybOkjMKHiT-77" style="rounded=0;orthogonalLoop=1;jettySize=auto;html=1;dashed=1;entryX=0.41;entryY=0.975;entryDx=0;entryDy=0;entryPerimeter=0;" edge="1" parent="1" source="fC03vkBdiAybOkjMKHiT-13" target="fC03vkBdiAybOkjMKHiT-28">
          <mxGeometry relative="1" as="geometry" />
        </mxCell>
        <mxCell id="fC03vkBdiAybOkjMKHiT-13" value="Gérer les&amp;nbsp;congés" style="ellipse;whiteSpace=wrap;html=1;" vertex="1" parent="1">
          <mxGeometry x="500" y="360" width="200" height="40" as="geometry" />
        </mxCell>
        <mxCell id="fC03vkBdiAybOkjMKHiT-78" style="rounded=0;orthogonalLoop=1;jettySize=auto;html=1;dashed=1;exitX=0.945;exitY=0.2;exitDx=0;exitDy=0;exitPerimeter=0;entryX=0.43;entryY=0.975;entryDx=0;entryDy=0;entryPerimeter=0;" edge="1" parent="1" source="fC03vkBdiAybOkjMKHiT-14" target="fC03vkBdiAybOkjMKHiT-28">
          <mxGeometry relative="1" as="geometry">
            <mxPoint x="807" y="269" as="targetPoint" />
          </mxGeometry>
        </mxCell>
        <mxCell id="fC03vkBdiAybOkjMKHiT-14" value="Gérer les&amp;nbsp;missions" style="ellipse;whiteSpace=wrap;html=1;" vertex="1" parent="1">
          <mxGeometry x="500" y="420" width="200" height="40" as="geometry" />
        </mxCell>
        <mxCell id="fC03vkBdiAybOkjMKHiT-81" style="rounded=0;orthogonalLoop=1;jettySize=auto;html=1;dashed=1;exitX=1;exitY=0.5;exitDx=0;exitDy=0;" edge="1" parent="1" source="fC03vkBdiAybOkjMKHiT-15" target="fC03vkBdiAybOkjMKHiT-28">
          <mxGeometry relative="1" as="geometry" />
        </mxCell>
        <mxCell id="fC03vkBdiAybOkjMKHiT-15" value="Gérer les&amp;nbsp;annonces" style="ellipse;whiteSpace=wrap;html=1;" vertex="1" parent="1">
          <mxGeometry x="500" y="600" width="200" height="40" as="geometry" />
        </mxCell>
        <mxCell id="fC03vkBdiAybOkjMKHiT-82" style="rounded=0;orthogonalLoop=1;jettySize=auto;html=1;dashed=1;exitX=1;exitY=0.5;exitDx=0;exitDy=0;" edge="1" parent="1" source="fC03vkBdiAybOkjMKHiT-16" target="fC03vkBdiAybOkjMKHiT-28">
          <mxGeometry relative="1" as="geometry" />
        </mxCell>
        <mxCell id="fC03vkBdiAybOkjMKHiT-16" value="Gérer les&amp;nbsp;formations" style="ellipse;whiteSpace=wrap;html=1;" vertex="1" parent="1">
          <mxGeometry x="500" y="660" width="200" height="40" as="geometry" />
        </mxCell>
        <mxCell id="fC03vkBdiAybOkjMKHiT-79" style="rounded=0;orthogonalLoop=1;jettySize=auto;html=1;exitX=1;exitY=0.5;exitDx=0;exitDy=0;dashed=1;" edge="1" parent="1" source="fC03vkBdiAybOkjMKHiT-17" target="fC03vkBdiAybOkjMKHiT-28">
          <mxGeometry relative="1" as="geometry" />
        </mxCell>
        <mxCell id="fC03vkBdiAybOkjMKHiT-17" value="Gérer les&amp;nbsp;forum" style="ellipse;whiteSpace=wrap;html=1;" vertex="1" parent="1">
          <mxGeometry x="500" y="480" width="200" height="40" as="geometry" />
        </mxCell>
        <mxCell id="fC03vkBdiAybOkjMKHiT-59" style="rounded=0;orthogonalLoop=1;jettySize=auto;html=1;endArrow=block;endFill=0;entryX=0.025;entryY=0.675;entryDx=0;entryDy=0;entryPerimeter=0;exitX=1;exitY=0.5;exitDx=0;exitDy=0;" edge="1" parent="1" source="fC03vkBdiAybOkjMKHiT-18" target="fC03vkBdiAybOkjMKHiT-12">
          <mxGeometry relative="1" as="geometry" />
        </mxCell>
        <mxCell id="fC03vkBdiAybOkjMKHiT-18" value="Chercher un employé" style="ellipse;whiteSpace=wrap;html=1;" vertex="1" parent="1">
          <mxGeometry x="220" y="600" width="200" height="40" as="geometry" />
        </mxCell>
        <mxCell id="fC03vkBdiAybOkjMKHiT-19" value="Mettre à jour ses informations" style="ellipse;whiteSpace=wrap;html=1;" vertex="1" parent="1">
          <mxGeometry x="215" y="300" width="200" height="40" as="geometry" />
        </mxCell>
        <mxCell id="fC03vkBdiAybOkjMKHiT-54" style="rounded=0;orthogonalLoop=1;jettySize=auto;html=1;endArrow=block;endFill=0;entryX=0;entryY=0.5;entryDx=0;entryDy=0;exitX=0.97;exitY=0.7;exitDx=0;exitDy=0;exitPerimeter=0;" edge="1" parent="1" source="fC03vkBdiAybOkjMKHiT-20" target="fC03vkBdiAybOkjMKHiT-13">
          <mxGeometry relative="1" as="geometry">
            <Array as="points">
              <mxPoint x="470" y="340" />
            </Array>
          </mxGeometry>
        </mxCell>
        <mxCell id="fC03vkBdiAybOkjMKHiT-20" value="Demander un congé" style="ellipse;whiteSpace=wrap;html=1;" vertex="1" parent="1">
          <mxGeometry x="210" y="240" width="200" height="40" as="geometry" />
        </mxCell>
        <mxCell id="fC03vkBdiAybOkjMKHiT-55" style="rounded=0;orthogonalLoop=1;jettySize=auto;html=1;exitX=0.815;exitY=0.925;exitDx=0;exitDy=0;exitPerimeter=0;endArrow=block;endFill=0;" edge="1" parent="1" source="fC03vkBdiAybOkjMKHiT-21" target="fC03vkBdiAybOkjMKHiT-14">
          <mxGeometry relative="1" as="geometry">
            <Array as="points" />
          </mxGeometry>
        </mxCell>
        <mxCell id="fC03vkBdiAybOkjMKHiT-21" value="Consulter ses missions" style="ellipse;whiteSpace=wrap;html=1;" vertex="1" parent="1">
          <mxGeometry x="215" y="360" width="200" height="40" as="geometry" />
        </mxCell>
        <mxCell id="fC03vkBdiAybOkjMKHiT-53" style="rounded=0;orthogonalLoop=1;jettySize=auto;html=1;endArrow=block;endFill=0;entryX=0.08;entryY=0.175;entryDx=0;entryDy=0;entryPerimeter=0;exitX=0.915;exitY=0.775;exitDx=0;exitDy=0;exitPerimeter=0;" edge="1" parent="1" source="fC03vkBdiAybOkjMKHiT-22" target="fC03vkBdiAybOkjMKHiT-13">
          <mxGeometry relative="1" as="geometry">
            <Array as="points">
              <mxPoint x="480" y="300" />
            </Array>
          </mxGeometry>
        </mxCell>
        <mxCell id="fC03vkBdiAybOkjMKHiT-22" value="Consulter ses demandes &lt;br&gt;de congés" style="ellipse;whiteSpace=wrap;html=1;" vertex="1" parent="1">
          <mxGeometry x="215" y="180" width="200" height="40" as="geometry" />
        </mxCell>
        <mxCell id="fC03vkBdiAybOkjMKHiT-61" style="rounded=0;orthogonalLoop=1;jettySize=auto;html=1;entryX=0;entryY=0.5;entryDx=0;entryDy=0;endArrow=block;endFill=0;exitX=0.955;exitY=0.3;exitDx=0;exitDy=0;exitPerimeter=0;" edge="1" parent="1" source="fC03vkBdiAybOkjMKHiT-23" target="fC03vkBdiAybOkjMKHiT-16">
          <mxGeometry relative="1" as="geometry" />
        </mxCell>
        <mxCell id="fC03vkBdiAybOkjMKHiT-23" value="Consulter les formations" style="ellipse;whiteSpace=wrap;html=1;" vertex="1" parent="1">
          <mxGeometry x="220" y="720" width="200" height="40" as="geometry" />
        </mxCell>
        <mxCell id="fC03vkBdiAybOkjMKHiT-60" style="rounded=0;orthogonalLoop=1;jettySize=auto;html=1;entryX=0;entryY=0.5;entryDx=0;entryDy=0;endArrow=block;endFill=0;exitX=0.94;exitY=0.25;exitDx=0;exitDy=0;exitPerimeter=0;" edge="1" parent="1" source="fC03vkBdiAybOkjMKHiT-24" target="fC03vkBdiAybOkjMKHiT-15">
          <mxGeometry relative="1" as="geometry" />
        </mxCell>
        <mxCell id="fC03vkBdiAybOkjMKHiT-24" value="Consulter les&amp;nbsp;annonces" style="ellipse;whiteSpace=wrap;html=1;" vertex="1" parent="1">
          <mxGeometry x="220" y="660" width="200" height="40" as="geometry" />
        </mxCell>
        <mxCell id="fC03vkBdiAybOkjMKHiT-62" style="rounded=0;orthogonalLoop=1;jettySize=auto;html=1;endArrow=block;endFill=0;entryX=0;entryY=0.5;entryDx=0;entryDy=0;" edge="1" parent="1" source="fC03vkBdiAybOkjMKHiT-25" target="fC03vkBdiAybOkjMKHiT-17">
          <mxGeometry relative="1" as="geometry">
            <mxPoint x="560" y="460" as="targetPoint" />
          </mxGeometry>
        </mxCell>
        <mxCell id="fC03vkBdiAybOkjMKHiT-25" value="Consulter les publications &lt;br&gt;sur le forum" style="ellipse;whiteSpace=wrap;html=1;" vertex="1" parent="1">
          <mxGeometry x="220" y="480" width="200" height="40" as="geometry" />
        </mxCell>
        <mxCell id="fC03vkBdiAybOkjMKHiT-56" style="rounded=0;orthogonalLoop=1;jettySize=auto;html=1;endArrow=block;endFill=0;entryX=0.05;entryY=0.3;entryDx=0;entryDy=0;entryPerimeter=0;" edge="1" parent="1" source="fC03vkBdiAybOkjMKHiT-26" target="fC03vkBdiAybOkjMKHiT-17">
          <mxGeometry relative="1" as="geometry" />
        </mxCell>
        <mxCell id="fC03vkBdiAybOkjMKHiT-26" value="Publier sur le forum" style="ellipse;whiteSpace=wrap;html=1;" vertex="1" parent="1">
          <mxGeometry x="220" y="420" width="200" height="40" as="geometry" />
        </mxCell>
        <mxCell id="fC03vkBdiAybOkjMKHiT-58" style="rounded=0;orthogonalLoop=1;jettySize=auto;html=1;entryX=0.055;entryY=0.7;entryDx=0;entryDy=0;endArrow=block;endFill=0;exitX=0.95;exitY=0.325;exitDx=0;exitDy=0;exitPerimeter=0;entryPerimeter=0;" edge="1" parent="1" source="fC03vkBdiAybOkjMKHiT-27" target="fC03vkBdiAybOkjMKHiT-17">
          <mxGeometry relative="1" as="geometry" />
        </mxCell>
        <mxCell id="fC03vkBdiAybOkjMKHiT-27" value="Répondre à une publication" style="ellipse;whiteSpace=wrap;html=1;" vertex="1" parent="1">
          <mxGeometry x="220" y="540" width="200" height="40" as="geometry" />
        </mxCell>
        <mxCell id="fC03vkBdiAybOkjMKHiT-28" value="S&#39;autentifier" style="ellipse;whiteSpace=wrap;html=1;" vertex="1" parent="1">
          <mxGeometry x="710" y="260" width="200" height="40" as="geometry" />
        </mxCell>
        <mxCell id="fC03vkBdiAybOkjMKHiT-70" style="edgeStyle=orthogonalEdgeStyle;rounded=0;orthogonalLoop=1;jettySize=auto;html=1;exitX=0.5;exitY=1;exitDx=0;exitDy=0;" edge="1" parent="1" source="fC03vkBdiAybOkjMKHiT-13" target="fC03vkBdiAybOkjMKHiT-13">
          <mxGeometry relative="1" as="geometry" />
        </mxCell>
        <mxCell id="fC03vkBdiAybOkjMKHiT-83" value="&amp;lt;&amp;lt;include&amp;gt;&amp;gt;" style="text;html=1;align=center;verticalAlign=middle;resizable=0;points=[];autosize=1;strokeColor=none;fillColor=none;" vertex="1" parent="1">
          <mxGeometry x="680" y="300" width="90" height="30" as="geometry" />
        </mxCell>
        <mxCell id="fC03vkBdiAybOkjMKHiT-84" value="&amp;lt;&amp;lt;include&amp;gt;&amp;gt;" style="text;html=1;align=center;verticalAlign=middle;resizable=0;points=[];autosize=1;strokeColor=none;fillColor=none;" vertex="1" parent="1">
          <mxGeometry x="720" y="320" width="90" height="30" as="geometry" />
        </mxCell>
        <mxCell id="fC03vkBdiAybOkjMKHiT-85" value="&amp;lt;&amp;lt;include&amp;gt;&amp;gt;" style="text;html=1;align=center;verticalAlign=middle;resizable=0;points=[];autosize=1;strokeColor=none;fillColor=none;" vertex="1" parent="1">
          <mxGeometry x="720" y="340" width="90" height="30" as="geometry" />
        </mxCell>
        <mxCell id="fC03vkBdiAybOkjMKHiT-86" value="&amp;lt;&amp;lt;include&amp;gt;&amp;gt;" style="text;html=1;align=center;verticalAlign=middle;resizable=0;points=[];autosize=1;strokeColor=none;fillColor=none;" vertex="1" parent="1">
          <mxGeometry x="800" y="340" width="90" height="30" as="geometry" />
        </mxCell>
        <mxCell id="fC03vkBdiAybOkjMKHiT-87" value="&amp;lt;&amp;lt;include&amp;gt;&amp;gt;" style="text;html=1;align=center;verticalAlign=middle;resizable=0;points=[];autosize=1;strokeColor=none;fillColor=none;" vertex="1" parent="1">
          <mxGeometry x="820" y="320" width="90" height="30" as="geometry" />
        </mxCell>
        <mxCell id="fC03vkBdiAybOkjMKHiT-88" value="&amp;lt;&amp;lt;include&amp;gt;&amp;gt;" style="text;html=1;align=center;verticalAlign=middle;resizable=0;points=[];autosize=1;strokeColor=none;fillColor=none;" vertex="1" parent="1">
          <mxGeometry x="840" y="300" width="90" height="30" as="geometry" />
        </mxCell>
        <mxCell id="fC03vkBdiAybOkjMKHiT-91" value="Gestion des employés" style="text;html=1;strokeColor=none;fillColor=none;align=center;verticalAlign=middle;whiteSpace=wrap;rounded=0;fontSize=20;fontStyle=1" vertex="1" parent="1">
          <mxGeometry x="410" y="118" width="250" height="30" as="geometry" />
        </mxCell>
        <mxCell id="fC03vkBdiAybOkjMKHiT-92" value="" style="rounded=0;whiteSpace=wrap;html=1;strokeColor=none;" vertex="1" parent="1">
          <mxGeometry x="460" y="70" width="120" height="20" as="geometry" />
        </mxCell>
      </root>
    </mxGraphModel>
  </diagram>
</mxfile>
